<svg width="100%" height="80" viewBox="0 0 1200 80" fill="none" xmlns="http://www.w3.org/2000/svg">
  <defs>
    <pattern id="circuit-pattern" x="0" y="0" width="200" height="80" patternUnits="userSpaceOnUse">
      <path d="M10 40H30L40 30V10" stroke="#0A192F" stroke-width="2" fill="none"/>
      <circle cx="40" cy="10" r="3" fill="#0A192F"/>
      <path d="M190 40H170L160 50V70" stroke="#0A192F" stroke-width="2" fill="none"/>
      <circle cx="160" cy="70" r="3" fill="#0A192F"/>
      <path d="M80 40H120" stroke="#0A192F" stroke-width="2"/>
      <rect x="90" y="35" width="20" height="10" fill="#0A192F"/>
      <path d="M50 20V60" stroke="#0A192F" stroke-width="1" stroke-dasharray="4 2"/>
      <path d="M150 20V60" stroke="#0A192F" stroke-width="1" stroke-dasharray="4 2"/>
      <!-- Kochkor Muyuz Stylized -->
      <path d="M70 20C70 20 80 10 100 10C120 10 130 20 130 20" stroke="#0A192F" stroke-width="2" stroke-linecap="square"/>
      <path d="M70 60C70 60 80 70 100 70C120 70 130 60 130 60" stroke="#0A192F" stroke-width="2" stroke-linecap="square"/>
      <circle cx="70" cy="20" r="2" fill="#0A192F"/>
      <circle cx="130" cy="20" r="2" fill="#0A192F"/>
      <circle cx="70" cy="60" r="2" fill="#0A192F"/>
      <circle cx="130" cy="60" r="2" fill="#0A192F"/>
    </pattern>
  </defs>
  <rect width="100%" height="100%" fill="url(#circuit-pattern)"/>
</svg>
